<?xml version="1.0" standalone="no"?>
<!DOCTYPE svg PUBLIC "-//W3C//DTD SVG 20010904//EN"
 "http://www.w3.org/TR/2001/REC-SVG-20010904/DTD/svg10.dtd">
<svg version="1.0" xmlns="http://www.w3.org/2000/svg"
 width="900.000000pt" height="1290.000000pt" viewBox="0 0 900.000000 1290.000000"
 preserveAspectRatio="xMidYMid meet">

<g transform="translate(0.000000,1290.000000) scale(0.100000,-0.100000)"
fill="#eafd18" stroke="none">
<path d="M2755 12803 c-231 -181 -501 -440 -676 -648 -500 -596 -824 -1277
-1004 -2110 -59 -275 -122 -742 -113 -838 4 -40 0 -47 -79 -141 -178 -212
-294 -424 -381 -696 -60 -188 -112 -503 -112 -678 0 -175 -105 -446 -266 -687
-80 -122 -97 -168 -115 -322 -20 -169 18 -357 107 -535 116 -231 429 -578 782
-868 l43 -35 -88 -67 c-568 -432 -747 -886 -526 -1333 129 -260 290 -397 542
-461 52 -13 96 -26 98 -28 11 -11 -123 -485 -192 -680 -64 -181 -108 -283
-198 -461 -131 -258 -175 -407 -184 -617 -5 -118 -3 -149 16 -231 50 -217 189
-410 393 -547 37 -25 68 -48 68 -51 0 -3 -39 -21 -86 -39 -106 -41 -262 -135
-393 -235 -111 -85 -165 -140 -205 -208 -47 -79 -35 -129 36 -144 17 -3 28
-14 32 -28 7 -27 65 -57 104 -54 15 1 40 -3 55 -10 36 -14 347 -15 454 -1 201
27 458 90 666 164 153 54 363 139 442 179 206 103 270 208 190 312 -19 25 -22
36 -13 40 37 12 360 26 572 24 361 -3 694 -46 1010 -130 l39 -10 -31 -32 c-41
-44 -52 -69 -52 -118 0 -104 99 -172 391 -270 367 -122 652 -183 954 -205 138
-10 441 21 470 47 5 5 24 9 42 9 49 0 81 19 95 57 7 20 19 33 29 33 22 0 59
46 59 72 0 34 -41 100 -93 151 -116 110 -410 280 -567 326 -41 12 -83 25 -93
27 -14 5 4 28 91 118 303 313 434 671 429 1171 l-2 161 450 542 c290 349 450
550 450 564 0 17 -69 81 -270 251 -148 126 -285 241 -303 256 l-34 27 479 488
c316 323 479 496 481 512 3 19 -44 74 -244 285 -613 646 -712 754 -701 760 7
4 102 12 212 18 110 7 367 23 570 36 461 31 750 49 1160 75 176 11 424 27 550
35 127 9 283 19 348 24 65 4 122 12 128 18 22 22 113 736 158 1238 37 403 71
1115 71 1461 0 167 -3 176 -60 168 -733 -107 -1842 -381 -2705 -669 -243 -81
-738 -260 -970 -352 l-150 -59 -7 65 c-4 37 -11 112 -15 168 l-9 103 31 5 c16
2 71 7 120 10 1045 70 1902 289 2715 695 244 121 274 140 278 173 3 24 -2 30
-45 48 -68 29 -320 112 -433 143 -276 74 -542 122 -855 152 -239 23 -796 15
-1040 -15 -439 -53 -827 -143 -1300 -303 -66 -22 -128 -45 -137 -50 -13 -6
-23 -3 -37 11 -27 27 -220 140 -352 207 -349 175 -738 284 -1118 313 -250 20
-630 10 -799 -20 -35 -6 -65 -9 -68 -6 -3 2 31 74 76 158 312 591 471 949 615
1384 226 677 295 1238 210 1698 -8 44 -17 83 -21 88 -16 27 -64 5 -169 -78z
m-698 -1042 c193 -218 336 -504 443 -882 l31 -110 -37 -87 c-45 -105 -173
-387 -242 -534 -28 -59 -105 -211 -171 -337 -113 -214 -130 -261 -98 -261 7 0
7 -3 2 -9 -6 -5 -44 -14 -85 -20 -92 -14 -260 -53 -277 -64 -18 -11 -16 -56 3
-64 8 -3 61 4 117 16 100 22 175 35 352 65 172 29 361 39 610 32 132 -3 263
-10 290 -15 28 -5 96 -16 153 -25 270 -43 562 -136 806 -255 139 -69 346 -189
346 -201 0 -5 -25 -18 -54 -29 -103 -38 -186 -80 -192 -96 -8 -20 13 -45 38
-45 10 0 74 23 141 51 188 77 580 210 777 263 271 72 513 119 800 157 210 28
270 32 565 36 263 4 365 2 500 -12 94 -9 174 -20 178 -24 4 -4 -8 -50 -26
-102 -85 -234 -217 -438 -398 -616 -127 -124 -132 -126 -249 -151 -281 -60
-720 -122 -990 -141 -244 -17 -473 -31 -623 -37 -126 -5 -149 -9 -157 -24 -6
-12 -4 -24 7 -40 l16 -23 182 7 182 7 12 -113 c20 -196 33 -614 27 -863 -6
-253 -36 -683 -61 -869 -9 -61 -22 -163 -31 -226 -8 -63 -21 -150 -29 -193
-65 -346 -67 -1179 -5 -1506 5 -29 10 -61 10 -71 0 -9 -37 -46 -83 -82 -45
-36 -117 -100 -160 -143 -152 -149 -194 -253 -127 -315 16 -15 44 -30 61 -34
59 -11 234 -6 323 10 101 19 97 21 115 -64 31 -143 145 -601 212 -845 l18 -68
-66 -72 c-245 -266 -375 -473 -357 -566 9 -44 48 -79 98 -86 65 -10 192 12
322 55 67 22 123 35 127 31 16 -16 11 -339 -7 -471 -39 -291 -167 -560 -367
-774 -81 -86 -210 -198 -271 -233 -37 -22 -48 -61 -22 -80 22 -16 48 -9 96 29
l37 29 103 -31 c153 -45 246 -85 373 -160 128 -76 220 -144 259 -190 49 -59
20 -71 -35 -14 -106 110 -434 256 -483 215 -19 -16 -21 -45 -3 -58 6 -6 32
-13 57 -17 58 -9 235 -93 315 -151 67 -47 111 -98 100 -115 -11 -18 -29 -10
-115 50 -163 116 -414 224 -461 200 -26 -14 -24 -46 4 -64 12 -8 48 -22 79
-31 64 -18 213 -92 302 -149 53 -35 57 -40 40 -50 -13 -7 -102 -11 -269 -11
-217 0 -267 3 -380 23 -182 32 -411 91 -609 157 -241 80 -353 140 -372 197 -8
25 24 74 67 104 l37 25 132 -45 c101 -34 138 -43 151 -35 22 11 25 52 7 66 -7
6 -85 33 -173 61 -281 90 -554 148 -855 183 -165 19 -222 20 -530 16 -371 -5
-486 -16 -764 -67 -262 -49 -306 -63 -306 -95 0 -44 22 -49 118 -27 48 11 141
30 207 42 66 12 127 23 136 26 24 7 109 -72 109 -102 0 -58 -45 -93 -220 -173
-239 -110 -484 -197 -720 -255 -228 -57 -370 -76 -564 -76 -128 0 -129 0 -111
20 51 56 335 220 381 220 8 0 23 9 34 20 17 17 18 24 9 41 -9 18 -18 20 -48
16 -93 -12 -261 -103 -406 -219 -83 -67 -125 -84 -125 -51 0 56 335 283 418
283 10 0 27 9 36 19 14 16 15 23 6 41 -11 20 -17 22 -58 16 -92 -12 -298 -133
-414 -242 -88 -84 -100 -65 -21 33 52 64 341 273 378 273 7 0 16 4 20 9 3 5
65 33 138 61 72 29 142 59 155 67 31 19 25 52 -15 78 -17 11 -64 40 -104 65
-135 84 -277 235 -332 353 -65 137 -85 264 -68 437 18 173 61 299 200 577 140
281 239 561 337 954 l39 156 160 6 c91 3 213 15 283 27 l123 21 62 -58 c81
-76 157 -115 303 -157 181 -51 376 -69 699 -63 143 2 319 9 390 16 207 18 539
63 553 74 7 6 12 22 10 36 -3 23 -8 26 -44 29 -22 2 -128 -8 -235 -23 -269
-35 -433 -46 -729 -50 -296 -4 -399 4 -569 46 -253 62 -387 165 -421 325 -8
38 -7 65 4 119 79 375 462 864 866 1107 213 129 435 208 665 239 112 14 470 6
575 -14 41 -8 80 -12 87 -10 23 9 26 44 6 64 -43 44 -498 65 -718 34 -374 -52
-770 -265 -1069 -574 l-50 -50 -34 40 c-124 145 -383 266 -682 318 -166 29
-248 32 -264 9 -16 -26 3 -51 45 -60 19 -3 88 -14 155 -23 291 -38 527 -139
673 -289 l54 -54 -80 -109 c-105 -143 -162 -236 -222 -363 -89 -191 -116 -316
-87 -420 8 -30 13 -57 11 -58 -2 -2 -54 -13 -117 -23 -93 -17 -148 -20 -318
-17 -200 4 -207 4 -295 35 -165 57 -266 130 -352 255 -65 94 -104 172 -138
278 -38 116 -41 276 -7 394 49 171 153 336 312 497 98 100 290 260 335 281 17
8 47 -9 178 -96 163 -110 197 -123 218 -85 14 27 10 32 -116 111 -294 187
-600 453 -838 728 -123 144 -126 148 -90 156 91 21 228 139 296 255 119 202
126 504 17 718 -65 130 -164 232 -261 271 -19 7 -35 14 -37 16 -2 1 8 31 22
66 63 157 84 254 95 438 38 646 301 1179 749 1516 39 31 72 61 72 69 0 18 -27
45 -45 45 -8 0 -57 -34 -110 -75 -52 -41 -98 -75 -101 -75 -7 0 -1 65 32 315
106 823 376 1574 782 2170 95 140 91 135 108 128 8 -3 49 -44 91 -92z m6843
-3631 c-17 -373 -50 -810 -86 -1150 -23 -216 -99 -801 -109 -836 -2 -7 -57
-14 -152 -18 -81 -4 -233 -13 -338 -21 -104 -8 -275 -19 -380 -25 -104 -6
-350 -22 -545 -35 -195 -14 -440 -29 -544 -35 -104 -6 -275 -17 -380 -25 -105
-8 -290 -19 -411 -26 -121 -6 -238 -14 -260 -18 -37 -6 -40 -9 -40 -38 0 -31
60 -97 570 -633 55 -58 174 -183 264 -278 l163 -172 -128 -133 c-70 -72 -289
-297 -486 -499 -403 -412 -378 -373 -288 -448 27 -23 50 -46 50 -51 0 -5 -27
-9 -60 -9 -54 0 -60 -2 -66 -24 -3 -15 3 -40 16 -66 12 -23 19 -44 16 -47 -3
-3 -32 4 -66 17 -49 18 -63 20 -75 10 -21 -17 -19 -47 6 -87 12 -19 19 -37 15
-40 -3 -3 -28 4 -55 16 -61 26 -77 26 -91 1 -7 -14 -6 -30 6 -59 9 -22 14 -45
12 -51 -1 -5 -64 32 -139 83 l-137 92 -16 60 c-25 88 -76 317 -76 340 0 11 46
79 103 151 195 251 352 456 367 480 10 17 12 29 5 39 -6 7 -148 155 -318 328
l-307 314 11 209 c7 151 24 306 60 554 75 520 100 829 107 1340 l7 424 235 93
c590 231 1095 401 1708 573 59 17 136 39 172 50 36 10 178 46 315 79 138 34
304 74 370 91 228 55 523 116 820 168 l160 28 3 -235 c2 -130 -2 -346 -8 -481z
m-3686 -3289 c184 -184 256 -263 251 -272 -18 -29 -398 -519 -401 -516 -8 8
-46 216 -69 371 -35 246 -65 676 -48 676 4 0 125 -116 267 -259z m184 -1564
c89 -61 161 -114 160 -119 -2 -5 -50 -67 -108 -139 -66 -82 -107 -125 -111
-117 -4 7 -32 114 -63 238 -32 124 -60 233 -63 244 -6 23 -17 29 185 -107z"/>
<path d="M927 8173 c-14 -13 -6 -44 14 -61 12 -9 33 -27 47 -38 l26 -22 -50
-25 c-103 -52 -204 -194 -250 -352 -27 -90 -24 -252 5 -327 51 -132 116 -188
223 -196 48 -4 67 0 112 22 73 36 174 144 215 230 53 113 81 277 63 369 -11
53 -6 56 32 26 36 -28 80 -23 84 11 2 21 -6 33 -45 60 -26 19 -82 60 -123 92
-252 194 -326 238 -353 211z m273 -273 c92 -92 14 -320 -108 -320 -44 0 -63
16 -87 75 -29 68 8 195 71 244 35 28 97 28 124 1z"/>
<path d="M3440 7917 c-390 -201 -360 -184 -360 -210 0 -13 5 -28 11 -34 8 -8
8 -25 0 -63 -14 -66 -14 -204 0 -272 27 -129 133 -269 245 -324 50 -25 74 -30
154 -32 129 -5 187 17 279 103 174 165 218 420 111 639 -37 75 -113 164 -164
191 -20 11 -36 23 -36 27 0 5 25 20 55 35 30 15 57 35 60 44 9 28 -5 49 -34
49 -14 0 -159 -69 -321 -153z m111 -164 c31 -30 42 -49 51 -95 11 -52 10 -59
-13 -105 -44 -86 -129 -106 -205 -48 -62 47 -82 139 -48 211 26 54 58 74 121
74 48 0 58 -4 94 -37z"/>
<path d="M1613 7370 c-64 -14 -83 -27 -83 -59 0 -72 148 -204 212 -188 65 17
153 134 146 194 -2 23 -11 30 -43 41 -52 17 -179 24 -232 12z"/>
<path d="M3725 6980 c-166 -35 -306 -134 -407 -287 -70 -106 -107 -271 -89
-402 21 -156 85 -284 193 -386 127 -121 262 -175 434 -175 175 0 318 60 447
187 119 118 176 246 184 419 5 89 2 113 -20 192 -44 151 -132 274 -258 358
-107 71 -190 96 -329 100 -63 2 -133 -1 -155 -6z"/>
<path d="M1099 6774 c-10 -13 -9 -21 6 -47 54 -93 144 -161 227 -171 98 -12
229 30 340 109 l48 35 107 -81 c181 -135 402 -229 537 -229 111 0 252 58 337
137 53 50 61 76 28 94 -18 9 -26 7 -48 -10 -101 -82 -218 -131 -313 -131 -160
0 -379 101 -575 266 -58 50 -80 54 -120 21 -84 -70 -233 -137 -301 -137 -62 1
-151 59 -194 128 -22 35 -57 43 -79 16z"/>
</g>
</svg>
